<svg width="1364" height="273" viewBox="0 0 1364 273" fill="none" xmlns="http://www.w3.org/2000/svg">
<path d="M317.246 134.928L307.642 135C300.904 135.096 295.983 135.239 292.877 135.43C290.105 135.669 288.122 135.788 286.928 135.788C284.013 135.788 281.695 135.048 279.975 133.566C278.303 132.085 277.466 130.317 277.466 128.263C277.466 126.925 277.777 125.873 278.398 125.109C279.019 124.344 280.525 123.15 282.914 121.525C284.3 120.569 285.255 119.088 285.781 117.081C286.306 115.026 286.88 110.654 287.501 103.965C288.409 93.5478 288.863 80.7179 288.863 65.475C288.863 59.8843 288.481 56.1811 287.716 54.3653C286.999 52.5018 285.279 50.9727 282.555 49.7781C279.402 48.4402 277.825 46.481 277.825 43.9007C277.825 41.7983 278.757 40.078 280.62 38.7401C282.532 37.4022 284.968 36.7332 287.931 36.7332C289.556 36.7332 291.634 36.8049 294.167 36.9482C298.372 37.1394 302.911 37.2349 307.785 37.2349C311.369 37.2349 318.417 37.0916 328.929 36.8049C332.226 36.7093 335.213 36.6615 337.889 36.6615C344.244 36.6615 349.357 37.1871 353.227 38.2384C357.145 39.2418 360.538 40.962 363.405 43.399C368.088 47.365 370.429 52.669 370.429 59.3109C370.429 62.608 369.736 65.8334 368.351 68.9871C366.965 72.093 365.101 74.5777 362.76 76.4413C361.088 77.7792 360.251 78.9977 360.251 80.0967C360.251 81.2913 361.255 82.2948 363.262 83.1071C367.18 84.684 370.74 87.3359 373.941 91.0631C377.238 94.9335 378.887 99.7836 378.887 105.613C378.887 112.494 376.378 118.777 371.361 124.464C364.719 131.966 354.9 135.717 341.903 135.717C340.135 135.717 335.786 135.597 328.858 135.358C322.55 135.119 318.68 134.976 317.246 134.928ZM322.192 57.1607V71.9258C322.192 74.2672 322.479 75.9157 323.052 76.8714C323.673 77.827 324.724 78.3049 326.206 78.3049C329.742 78.3049 332.346 77.2297 334.018 75.0795C335.691 72.8814 336.527 69.4649 336.527 64.8299C336.527 60.3383 335.667 56.874 333.947 54.437C332.226 51.9523 329.789 50.7099 326.636 50.7099C324.963 50.7099 323.793 51.1877 323.124 52.1434C322.502 53.0513 322.192 54.7237 322.192 57.1607ZM322.192 98.4456V105.255C322.192 111.514 322.646 115.672 323.554 117.726C324.462 119.781 326.301 120.808 329.073 120.808C336.336 120.808 339.967 116.556 339.967 108.05C339.967 97.4422 335.906 92.1382 327.783 92.1382C325.68 92.1382 324.223 92.5921 323.41 93.5C322.598 94.4079 322.192 96.0564 322.192 98.4456ZM420.31 35.6581C425.757 35.6581 430.894 36.1359 435.72 37.0916C442.218 38.3817 445.468 41.1293 445.468 45.3342C445.468 46.72 445.133 47.7712 444.464 48.4879C443.843 49.1569 442.218 50.1604 439.59 51.4983C437.392 52.5973 435.935 55.0104 435.218 58.7375C434.549 62.4646 434.215 69.7277 434.215 80.5268C434.215 98.7801 434.669 110.081 435.576 114.429C435.911 115.815 436.413 116.89 437.082 117.655C437.798 118.371 439.017 119.16 440.737 120.02C443.891 121.453 445.468 123.532 445.468 126.256C445.468 130.078 442.553 132.706 436.723 134.14C430.416 135.669 422.699 136.434 413.572 136.434C397.995 136.434 390.206 133.471 390.206 127.546C390.206 125.396 391.735 123.389 394.793 121.525C397.135 120.092 398.52 118.132 398.95 115.648C399.858 110.2 400.312 98.6367 400.312 80.9568C400.312 68.7243 399.691 60.8878 398.449 57.4474C397.78 55.4882 396.179 53.7202 393.646 52.1434C391.687 50.8532 390.373 49.7781 389.704 48.918C389.035 48.0579 388.701 46.9589 388.701 45.6209C388.701 43.5662 389.68 41.9416 391.639 40.747C393.646 39.5046 397.158 38.4056 402.176 37.45C408.149 36.2554 414.193 35.6581 420.31 35.6581ZM511.403 35.1563C517.663 35.1563 523.564 36.0403 529.107 37.8083C531.592 38.6207 533.288 39.0268 534.196 39.0268C535.152 39.0268 537.158 38.4773 540.217 37.3783C541.22 37.0438 542.247 36.8766 543.299 36.8766C545.974 36.8766 548.531 38.4534 550.968 41.6071C554.886 46.6722 556.845 52.2151 556.845 58.2358C556.845 62.3452 555.794 65.6661 553.692 68.1986C551.637 70.7312 548.913 71.9974 545.521 71.9974C542.749 71.9974 540.025 70.994 537.35 68.9871C536.537 68.3659 534.554 66.1201 531.4 62.2496C526.144 55.7988 520.1 52.5734 513.267 52.5734C507.055 52.5734 502.109 54.8432 498.43 59.3826C494.798 63.922 492.983 70.0383 492.983 77.7315C492.983 89.1517 495.897 98.8757 501.727 106.903C503.925 109.818 506.553 112.159 509.611 113.927C512.669 115.648 515.704 116.508 518.714 116.508C521.199 116.508 523.23 115.695 524.806 114.071C526.431 112.398 527.243 110.272 527.243 107.692C527.243 105.398 526.574 103.773 525.236 102.818C524.711 102.436 524.209 102.221 523.731 102.173C523.301 102.077 521.939 102.029 519.646 102.029C517.591 102.029 515.871 101.384 514.485 100.094C513.147 98.7562 512.478 97.0838 512.478 95.0769C512.478 91.1108 515.106 88.2916 520.363 86.6192C526.144 84.8034 532.81 83.8955 540.36 83.8955C548.435 83.8955 555.221 84.7317 560.716 86.4042C565.924 88.0288 568.528 90.9675 568.528 95.2202C568.528 96.9404 567.931 98.4456 566.736 99.7358C565.542 100.978 563.989 101.719 562.078 101.958C560.405 102.197 559.306 102.579 558.78 103.105C558.303 103.582 557.801 104.801 557.275 106.76C555.221 114.358 551.207 120.713 545.234 125.826C541.124 129.314 536.155 132.037 530.325 133.997C524.544 135.956 518.451 136.935 512.048 136.935C501.584 136.935 491.979 134.522 483.235 129.696C474.251 124.774 467.418 117.894 462.736 109.054C458.817 101.695 456.858 93.7389 456.858 85.1857C456.858 76.5369 459.2 68.3181 463.882 60.5294C468.852 52.1673 475.804 45.7165 484.74 41.1771C492.529 37.1633 501.416 35.1563 511.403 35.1563ZM593.537 37.1633H630.378C637.833 37.1633 643.256 37.0199 646.649 36.7332C650.089 36.3987 653.434 35.7536 656.683 34.798C657.687 34.5113 658.475 34.3679 659.048 34.3679C661.533 34.3679 663.731 35.7059 665.643 38.3817C668.796 42.73 670.373 47.9862 670.373 54.1503C670.373 57.2562 669.704 59.7171 668.366 61.5328C667.076 63.3008 665.284 64.1848 662.991 64.1848C661.414 64.1848 660.171 63.8742 659.263 63.2531C658.403 62.5841 657.233 61.1267 655.751 58.8809C653.649 55.6794 650.973 53.553 647.724 52.5018C644.522 51.4027 639.242 50.8532 631.883 50.8532C626.388 50.8532 623.044 51.8328 621.849 53.7919C621.228 54.8432 620.846 56.2528 620.702 58.0208C620.607 59.7887 620.559 64.3043 620.559 71.5674C620.559 74.4344 621.037 76.2263 621.992 76.943C622.948 77.612 625.457 77.9465 629.518 77.9465C631.525 77.9465 632.983 77.5403 633.89 76.728C634.798 75.8679 635.372 74.3627 635.611 72.2125C635.945 69.441 636.28 67.5536 636.614 66.5501C636.996 65.4989 637.665 64.591 638.621 63.8265C639.624 62.9664 640.795 62.5363 642.133 62.5363C644.092 62.5363 645.765 63.4681 647.15 65.3316C648.154 66.7174 648.99 69.1782 649.659 72.7142C650.376 76.2024 650.734 79.8578 650.734 83.6805C650.734 91.2303 649.563 97.4183 647.222 102.244C645.932 104.872 643.973 106.187 641.345 106.187C639.72 106.187 638.597 105.78 637.976 104.968C637.355 104.108 636.877 102.364 636.542 99.7358C635.826 94.3362 632.672 91.6365 627.081 91.6365C624.931 91.6365 623.45 92.3293 622.637 93.715C621.873 95.053 621.491 97.5616 621.491 101.241C621.491 103.487 621.634 106.402 621.921 109.985C622.255 113.521 622.59 115.863 622.924 117.01C623.306 118.443 624.477 119.446 626.436 120.02C628.443 120.545 631.764 120.808 636.399 120.808C643.567 120.808 648.966 119.9 652.598 118.085C656.229 116.221 659.192 112.876 661.485 108.05C662.823 105.279 664.018 103.415 665.069 102.459C666.168 101.504 667.578 101.026 669.298 101.026C671.305 101.026 672.953 101.91 674.244 103.678C675.582 105.398 676.25 107.572 676.25 110.2C676.25 113.067 675.51 116.651 674.029 120.952C672.547 125.252 670.731 129.075 668.581 132.42C667.482 134.044 666.574 135.119 665.858 135.645C665.141 136.218 664.233 136.505 663.134 136.505C662.226 136.505 660.912 136.362 659.192 136.075C656.134 135.502 652.048 135.143 646.935 135H586.155C583.718 135 581.83 134.474 580.492 133.423C579.154 132.324 578.485 130.795 578.485 128.836C578.485 127.45 578.772 126.447 579.346 125.826C579.919 125.204 581.233 124.416 583.288 123.46C584.721 122.839 585.772 122.075 586.441 121.167C587.158 120.259 587.708 118.921 588.09 117.153C589.667 109.938 590.455 100.214 590.455 87.981C590.455 69.5366 589.308 57.9013 587.015 53.0752C586.537 52.1195 586.011 51.4505 585.438 51.0683C584.865 50.686 583.67 50.232 581.854 49.7064C579.13 48.8941 577.769 47.0783 577.769 44.2591C577.769 42.73 578.223 41.3682 579.13 40.1736C580.038 38.979 581.233 38.1906 582.714 37.8083C584.578 37.3783 588.185 37.1633 593.537 37.1633ZM732.151 68.4853V101.384C732.151 108.791 732.797 113.569 734.087 115.719C735.664 118.252 738.985 119.518 744.05 119.518C749.497 119.518 753.797 118.324 756.951 115.934C760.105 113.545 762.303 109.818 763.545 104.753C764.262 101.647 765.887 100.094 768.419 100.094C770.952 100.094 773.006 101.241 774.583 103.535C776.208 105.78 777.02 108.719 777.02 112.351C777.02 118.276 774.822 124.607 770.426 131.345C769.04 133.495 767.822 134.952 766.771 135.717C765.719 136.529 764.453 136.935 762.972 136.935L747.06 135H696.959C693.662 135 691.344 134.618 690.006 133.853C688.047 132.754 687.068 131.106 687.068 128.908C687.068 127.57 687.378 126.59 688 125.969C688.668 125.3 690.245 124.368 692.73 123.174C695.454 121.883 697.198 120.068 697.962 117.726C698.584 115.767 698.894 110.057 698.894 100.596C698.894 96.1998 698.775 89.8685 698.536 81.6019C698.297 73.6699 698.154 67.6969 698.106 63.6831C698.106 59.8604 697.795 57.2562 697.174 55.8705C696.601 54.437 695.358 53.4097 693.447 52.7885C690.293 51.6894 688.286 50.8054 687.426 50.1365C685.897 48.9419 685.132 47.5801 685.132 46.051C685.132 42.5628 688.023 39.9108 693.805 38.095C698.727 36.5182 705.321 35.7297 713.588 35.7297C722.858 35.7297 729.786 36.2076 734.373 37.1633C740.299 38.4534 743.261 41.0337 743.261 44.9042C743.261 46.481 742.855 47.6517 742.043 48.4163C741.278 49.1808 739.367 50.2082 736.309 51.4983C734.493 52.3106 733.346 53.6964 732.868 55.6555C732.39 57.6146 732.151 61.8912 732.151 68.4853ZM799.664 37.1633H836.505C843.959 37.1633 849.383 37.0199 852.775 36.7332C856.216 36.3987 859.56 35.7536 862.81 34.798C863.813 34.5113 864.602 34.3679 865.175 34.3679C867.66 34.3679 869.858 35.7059 871.769 38.3817C874.923 42.73 876.5 47.9862 876.5 54.1503C876.5 57.2562 875.831 59.7171 874.493 61.5328C873.203 63.3008 871.411 64.1848 869.117 64.1848C867.54 64.1848 866.298 63.8742 865.39 63.2531C864.53 62.5841 863.359 61.1267 861.878 58.8809C859.776 55.6794 857.1 53.553 853.85 52.5018C850.649 51.4027 845.369 50.8532 838.01 50.8532C832.515 50.8532 829.17 51.8328 827.976 53.7919C827.354 54.8432 826.972 56.2528 826.829 58.0208C826.733 59.7887 826.685 64.3043 826.685 71.5674C826.685 74.4344 827.163 76.2263 828.119 76.943C829.075 77.612 831.583 77.9465 835.645 77.9465C837.652 77.9465 839.109 77.5403 840.017 76.728C840.925 75.8679 841.498 74.3627 841.737 72.2125C842.072 69.441 842.406 67.5536 842.741 66.5501C843.123 65.4989 843.792 64.591 844.748 63.8265C845.751 62.9664 846.922 62.5363 848.26 62.5363C850.219 62.5363 851.891 63.4681 853.277 65.3316C854.28 66.7174 855.117 69.1782 855.786 72.7142C856.502 76.2024 856.861 79.8578 856.861 83.6805C856.861 91.2303 855.69 97.4183 853.349 102.244C852.058 104.872 850.099 106.187 847.471 106.187C845.847 106.187 844.724 105.78 844.103 104.968C843.481 104.108 843.003 102.364 842.669 99.7358C841.952 94.3362 838.799 91.6365 833.208 91.6365C831.058 91.6365 829.576 92.3293 828.764 93.715C827.999 95.053 827.617 97.5616 827.617 101.241C827.617 103.487 827.761 106.402 828.047 109.985C828.382 113.521 828.716 115.863 829.051 117.01C829.433 118.443 830.604 119.446 832.563 120.02C834.57 120.545 837.891 120.808 842.526 120.808C849.693 120.808 855.093 119.9 858.724 118.085C862.356 116.221 865.318 112.876 867.612 108.05C868.95 105.279 870.145 103.415 871.196 102.459C872.295 101.504 873.704 101.026 875.425 101.026C877.432 101.026 879.08 101.91 880.37 103.678C881.708 105.398 882.377 107.572 882.377 110.2C882.377 113.067 881.636 116.651 880.155 120.952C878.674 125.252 876.858 129.075 874.708 132.42C873.609 134.044 872.701 135.119 871.984 135.645C871.267 136.218 870.36 136.505 869.261 136.505C868.353 136.505 867.039 136.362 865.318 136.075C862.26 135.502 858.175 135.143 853.062 135H792.281C789.844 135 787.957 134.474 786.619 133.423C785.281 132.324 784.612 130.795 784.612 128.836C784.612 127.45 784.899 126.447 785.472 125.826C786.046 125.204 787.36 124.416 789.414 123.46C790.848 122.839 791.899 122.075 792.568 121.167C793.285 120.259 793.834 118.921 794.217 117.153C795.793 109.938 796.582 100.214 796.582 87.981C796.582 69.5366 795.435 57.9013 793.141 53.0752C792.664 52.1195 792.138 51.4505 791.565 51.0683C790.991 50.686 789.797 50.232 787.981 49.7064C785.257 48.8941 783.895 47.0783 783.895 44.2591C783.895 42.73 784.349 41.3682 785.257 40.1736C786.165 38.979 787.36 38.1906 788.841 37.8083C790.704 37.3783 794.312 37.1633 799.664 37.1633ZM963.149 105.326L954.548 124.607C953.067 127.856 951.872 130.054 950.965 131.201C950.057 132.3 949.053 132.85 947.954 132.85C946.903 132.85 945.971 132.396 945.159 131.488C944.633 130.915 943.415 128.812 941.503 125.18C939.64 121.549 938.087 118.324 936.845 115.504L927.383 94.2168C926.093 91.2542 924.731 89.7729 923.298 89.7729C921.769 89.7729 920.933 91.0392 920.789 93.5717C920.455 99.2101 920.288 104.419 920.288 109.197C920.288 114.166 920.526 117.535 921.004 119.303C921.339 120.354 921.769 121.119 922.294 121.597C922.868 122.075 924.373 122.935 926.81 124.177C928.387 124.989 929.175 126.399 929.175 128.406C929.175 133.758 922.318 136.434 908.605 136.434C897.041 136.434 891.259 133.829 891.259 128.621C891.259 127.283 891.546 126.327 892.119 125.754C892.74 125.133 894.293 124.225 896.778 123.03C898.355 122.313 899.406 121.334 899.932 120.092C900.505 118.849 900.983 116.436 901.365 112.852C901.795 109.03 902.202 102.77 902.584 94.0734C902.966 85.329 903.157 77.8509 903.157 71.6391C903.157 63.8503 902.56 58.5703 901.365 55.7988C900.935 54.8432 900.434 54.1264 899.86 53.6486C899.334 53.1707 898.307 52.5495 896.778 51.785C893.385 50.1604 891.689 48.0579 891.689 45.4776C891.689 43.8052 892.31 42.2761 893.553 40.8904C894.843 39.5046 896.539 38.5251 898.642 37.9517C900.744 37.3305 903.539 36.8049 907.028 36.3748C910.564 35.897 913.55 35.6581 915.987 35.6581C922.103 35.6581 926.428 36.1598 928.96 37.1633C930.203 37.6411 931.182 38.2862 931.899 39.0985C932.616 39.9108 933.643 41.5832 934.981 44.1158L949.889 71.5674C951.514 74.5777 952.637 76.4174 953.258 77.0864C953.879 77.7554 954.739 78.0898 955.839 78.0898C956.794 78.0898 957.63 77.7315 958.347 77.0147C959.112 76.298 959.996 74.96 960.999 73.0009L971.105 53.2902C972.348 50.7577 973.16 49.1091 973.542 48.3446C975.884 43.5662 978.201 40.3886 980.495 38.8118C983.41 36.7571 988.714 35.7297 996.407 35.7297C1009.93 35.7297 1016.69 38.8118 1016.69 44.9759C1016.69 46.3616 1016.43 47.4845 1015.9 48.3446C1015.38 49.1569 1014.3 50.1604 1012.68 51.355C1010.48 53.0274 1009.09 55.4404 1008.52 58.5942C1007.42 65.1883 1006.87 73.2159 1006.87 82.6771C1006.87 94.8618 1007.44 105.541 1008.59 114.716C1008.88 116.962 1009.31 118.491 1009.88 119.303C1010.5 120.115 1012.06 121.334 1014.54 122.959C1016.26 124.105 1017.12 125.634 1017.12 127.546C1017.12 130.891 1014.9 133.256 1010.46 134.642C1008.16 135.406 1005.75 135.908 1003.22 136.147C1000.68 136.386 996.789 136.505 991.533 136.505C983.457 136.505 977.437 135.932 973.471 134.785C969.075 133.495 966.876 131.297 966.876 128.191C966.876 127.044 967.163 126.112 967.737 125.396C968.31 124.631 969.791 123.269 972.18 121.31C973.423 120.307 974.259 118.371 974.689 115.504C975.167 112.637 975.406 107.763 975.406 100.883C975.406 97.0599 975.215 94.5513 974.832 93.3567C974.498 92.1621 973.757 91.5648 972.611 91.5648C971.273 91.5648 969.982 92.4966 968.74 94.3601C967.498 96.1759 965.634 99.8313 963.149 105.326ZM1042.63 37.1633H1079.47C1086.93 37.1633 1092.35 37.0199 1095.74 36.7332C1099.18 36.3987 1102.53 35.7536 1105.78 34.798C1106.78 34.5113 1107.57 34.3679 1108.14 34.3679C1110.63 34.3679 1112.83 35.7059 1114.74 38.3817C1117.89 42.73 1119.47 47.9862 1119.47 54.1503C1119.47 57.2562 1118.8 59.7171 1117.46 61.5328C1116.17 63.3008 1114.38 64.1848 1112.08 64.1848C1110.51 64.1848 1109.27 63.8742 1108.36 63.2531C1107.5 62.5841 1106.33 61.1267 1104.85 58.8809C1102.74 55.6794 1100.07 53.553 1096.82 52.5018C1093.62 51.4027 1088.34 50.8532 1080.98 50.8532C1075.48 50.8532 1072.14 51.8328 1070.94 53.7919C1070.32 54.8432 1069.94 56.2528 1069.8 58.0208C1069.7 59.7887 1069.65 64.3043 1069.65 71.5674C1069.65 74.4344 1070.13 76.2263 1071.09 76.943C1072.04 77.612 1074.55 77.9465 1078.61 77.9465C1080.62 77.9465 1082.08 77.5403 1082.98 76.728C1083.89 75.8679 1084.47 74.3627 1084.7 72.2125C1085.04 69.441 1085.37 67.5536 1085.71 66.5501C1086.09 65.4989 1086.76 64.591 1087.72 63.8265C1088.72 62.9664 1089.89 62.5363 1091.23 62.5363C1093.19 62.5363 1094.86 63.4681 1096.24 65.3316C1097.25 66.7174 1098.08 69.1782 1098.75 72.7142C1099.47 76.2024 1099.83 79.8578 1099.83 83.6805C1099.83 91.2303 1098.66 97.4183 1096.32 102.244C1095.03 104.872 1093.07 106.187 1090.44 106.187C1088.81 106.187 1087.69 105.78 1087.07 104.968C1086.45 104.108 1085.97 102.364 1085.64 99.7358C1084.92 94.3362 1081.77 91.6365 1076.18 91.6365C1074.03 91.6365 1072.54 92.3293 1071.73 93.715C1070.97 95.053 1070.58 97.5616 1070.58 101.241C1070.58 103.487 1070.73 106.402 1071.01 109.985C1071.35 113.521 1071.68 115.863 1072.02 117.01C1072.4 118.443 1073.57 119.446 1075.53 120.02C1077.54 120.545 1080.86 120.808 1085.49 120.808C1092.66 120.808 1098.06 119.9 1101.69 118.085C1105.32 116.221 1108.29 112.876 1110.58 108.05C1111.92 105.279 1113.11 103.415 1114.16 102.459C1115.26 101.504 1116.67 101.026 1118.39 101.026C1120.4 101.026 1122.05 101.91 1123.34 103.678C1124.68 105.398 1125.34 107.572 1125.34 110.2C1125.34 113.067 1124.6 116.651 1123.12 120.952C1121.64 125.252 1119.83 129.075 1117.68 132.42C1116.58 134.044 1115.67 135.119 1114.95 135.645C1114.24 136.218 1113.33 136.505 1112.23 136.505C1111.32 136.505 1110.01 136.362 1108.29 136.075C1105.23 135.502 1101.14 135.143 1096.03 135H1035.25C1032.81 135 1030.92 134.474 1029.59 133.423C1028.25 132.324 1027.58 130.795 1027.58 128.836C1027.58 127.45 1027.87 126.447 1028.44 125.826C1029.01 125.204 1030.33 124.416 1032.38 123.46C1033.82 122.839 1034.87 122.075 1035.54 121.167C1036.25 120.259 1036.8 118.921 1037.18 117.153C1038.76 109.938 1039.55 100.214 1039.55 87.981C1039.55 69.5366 1038.4 57.9013 1036.11 53.0752C1035.63 52.1195 1035.11 51.4505 1034.53 51.0683C1033.96 50.686 1032.76 50.232 1030.95 49.7064C1028.22 48.8941 1026.86 47.0783 1026.86 44.2591C1026.86 42.73 1027.32 41.3682 1028.22 40.1736C1029.13 38.979 1030.33 38.1906 1031.81 37.8083C1033.67 37.3783 1037.28 37.1633 1042.63 37.1633ZM1174.58 40.6037L1210.27 71.8541C1213.62 74.7689 1216.03 76.2263 1217.51 76.2263C1220 76.2263 1221.24 73.5743 1221.24 68.2703C1221.24 62.2496 1220.88 58.1402 1220.17 55.9422C1219.45 53.7441 1217.94 52.0956 1215.65 50.9966C1213.79 50.0887 1212.47 49.133 1211.71 48.1296C1210.94 47.0783 1210.56 45.7404 1210.56 44.1158C1210.56 40.1019 1213.31 37.5216 1218.8 36.3748C1221.05 35.897 1224.97 35.6581 1230.56 35.6581C1237.77 35.6581 1242.77 36.0881 1245.54 36.9482C1249.93 38.2862 1252.13 40.8187 1252.13 44.5458C1252.13 47.6517 1250.34 49.9931 1246.76 51.57C1245.32 52.1912 1244.34 52.7407 1243.82 53.2185C1243.29 53.6964 1242.84 54.4131 1242.46 55.3688C1241.17 58.5225 1240.5 64.4954 1240.45 73.2876V96.6537C1240.45 100.237 1240.47 105.135 1240.52 111.347C1240.57 119.757 1240.07 125.826 1239.02 129.553C1237.73 134.188 1235.38 136.505 1231.99 136.505C1230.51 136.505 1229.22 136.195 1228.12 135.573C1227.07 134.952 1225.3 133.519 1222.82 131.273L1180.31 93.2133C1177.35 90.5374 1174.89 89.1995 1172.93 89.1995C1170.02 89.1995 1168.56 93.2372 1168.56 101.313C1168.56 107.955 1168.92 112.494 1169.63 114.931C1170.4 117.368 1171.93 119.16 1174.22 120.307C1177.42 121.883 1179.02 123.938 1179.02 126.471C1179.02 133.113 1171.88 136.434 1157.59 136.434C1151.14 136.434 1146.12 135.597 1142.54 133.925C1139.01 132.205 1137.24 129.792 1137.24 126.686C1137.24 125.061 1137.57 123.843 1138.24 123.03C1138.91 122.218 1140.41 121.119 1142.76 119.733C1145 118.395 1146.36 116.03 1146.84 112.637C1147.65 106.473 1148.06 97.6094 1148.06 86.0458C1148.06 73.7176 1147.34 64.7343 1145.91 59.0959C1145.38 57.0412 1144.72 55.5121 1143.9 54.5087C1143.09 53.5052 1141.75 52.5495 1139.89 51.6417C1137.74 50.5904 1136.23 49.5631 1135.37 48.5596C1134.56 47.5562 1134.16 46.3377 1134.16 44.9042C1134.16 40.317 1138.1 37.4261 1145.98 36.2315C1148.66 35.8492 1153.34 35.6581 1160.03 35.6581C1163.85 35.6581 1166.62 35.9687 1168.34 36.5899C1170.11 37.1633 1172.19 38.5012 1174.58 40.6037ZM1293.48 37.1633H1331.26C1335.32 37.0199 1339.02 36.4704 1342.37 35.5147C1343.8 35.1325 1345.07 34.9413 1346.16 34.9413C1350.04 34.9413 1353.79 37.8083 1357.42 43.5424C1361.1 49.2764 1362.94 55.1776 1362.94 61.2461C1362.94 65.4033 1361.67 68.4376 1359.14 70.3489C1357.23 71.7824 1354.93 72.4992 1352.26 72.4992C1349.72 72.4992 1347.53 71.8063 1345.66 70.4206C1343.8 68.9871 1341.96 66.6457 1340.14 63.3964C1338.57 60.4338 1337.32 58.4986 1336.42 57.5907C1335.51 56.6828 1334.41 56.2289 1333.12 56.2289C1331.35 56.2289 1330.09 56.9695 1329.32 58.4508C1328.56 59.9321 1328.17 62.3691 1328.17 65.7617V105.9C1328.17 110.009 1328.6 112.996 1329.46 114.859C1330.32 116.723 1331.95 118.156 1334.34 119.16C1336.92 120.259 1338.66 121.31 1339.57 122.313C1340.53 123.269 1341 124.607 1341 126.327C1341 129.768 1338.66 132.324 1333.98 133.997C1329.35 135.669 1322.2 136.505 1312.55 136.505C1300.7 136.505 1291.91 135.526 1286.17 133.566C1281.35 131.942 1278.93 129.314 1278.93 125.682C1278.93 123.723 1279.79 122.194 1281.51 121.095C1281.94 120.856 1283.64 120.283 1286.6 119.375C1288.42 118.849 1289.66 117.846 1290.33 116.364C1291.05 114.883 1291.62 112.04 1292.05 107.835C1292.43 104.108 1292.79 98.0872 1293.13 89.7729C1293.46 81.4108 1293.63 74.1716 1293.63 68.0553C1293.63 63.7548 1293.29 60.6966 1292.62 58.8809C1291.95 57.0651 1290.86 56.1572 1289.33 56.1572C1287.46 56.1572 1285.65 57.4951 1283.88 60.171C1280.68 65.0449 1278.05 68.2703 1275.99 69.8472C1273.56 71.7107 1271.19 72.6425 1268.9 72.6425C1266.32 72.6425 1264.19 71.6868 1262.52 69.7755C1260.85 67.8164 1260.01 65.3316 1260.01 62.3213C1260.01 59.3587 1260.68 56.1094 1262.02 52.5734C1263.36 48.9897 1265.15 45.6926 1267.39 42.6823C1271.03 37.8083 1274.61 35.3714 1278.15 35.3714C1279.1 35.3714 1280.2 35.5147 1281.44 35.8014C1284.02 36.327 1286.12 36.6854 1287.75 36.8766C1289.42 37.0677 1291.33 37.1633 1293.48 37.1633Z" fill="#ffffff"/>
<path d="M296.229 190.359C299.59 190.359 302.76 190.654 305.738 191.244C309.747 192.04 311.752 193.735 311.752 196.33C311.752 197.185 311.546 197.834 311.133 198.276C310.75 198.689 309.747 199.308 308.126 200.133C306.77 200.811 305.87 202.3 305.428 204.6C305.015 206.9 304.809 211.381 304.809 218.045C304.809 229.308 305.089 236.281 305.649 238.964C305.856 239.819 306.165 240.482 306.578 240.954C307.02 241.396 307.772 241.883 308.833 242.413C310.779 243.298 311.752 244.581 311.752 246.261C311.752 248.62 309.954 250.241 306.357 251.126C302.465 252.069 297.703 252.541 292.072 252.541C282.46 252.541 277.654 250.713 277.654 247.057C277.654 245.73 278.598 244.492 280.485 243.342C281.929 242.458 282.784 241.249 283.05 239.716C283.61 236.354 283.89 229.219 283.89 218.31C283.89 210.762 283.507 205.927 282.74 203.804C282.327 202.595 281.34 201.504 279.777 200.531C278.568 199.735 277.757 199.072 277.345 198.541C276.932 198.01 276.725 197.332 276.725 196.507C276.725 195.239 277.33 194.236 278.539 193.499C279.777 192.733 281.944 192.055 285.04 191.465C288.725 190.728 292.455 190.359 296.229 190.359ZM421.552 193.411L443.576 212.694C445.64 214.492 447.129 215.391 448.043 215.391C449.576 215.391 450.343 213.755 450.343 210.482C450.343 206.767 450.122 204.232 449.679 202.875C449.237 201.519 448.308 200.502 446.893 199.824C445.743 199.264 444.932 198.674 444.461 198.055C443.989 197.406 443.753 196.58 443.753 195.578C443.753 193.101 445.448 191.509 448.839 190.802C450.225 190.507 452.643 190.359 456.092 190.359C460.544 190.359 463.625 190.625 465.335 191.155C468.048 191.981 469.404 193.544 469.404 195.843C469.404 197.76 468.299 199.205 466.087 200.178C465.203 200.561 464.598 200.9 464.274 201.195C463.95 201.49 463.67 201.932 463.434 202.522C462.638 204.467 462.225 208.153 462.195 213.578V227.996C462.195 230.207 462.21 233.229 462.24 237.062C462.269 242.251 461.959 245.996 461.311 248.295C460.515 251.155 459.07 252.585 456.977 252.585C456.063 252.585 455.267 252.394 454.588 252.01C453.94 251.627 452.849 250.743 451.316 249.357L425.09 225.873C423.262 224.222 421.743 223.396 420.534 223.396C418.736 223.396 417.837 225.888 417.837 230.87C417.837 234.969 418.058 237.77 418.5 239.273C418.972 240.777 419.915 241.883 421.33 242.59C423.306 243.563 424.294 244.831 424.294 246.394C424.294 250.492 419.886 252.541 411.07 252.541C407.09 252.541 403.994 252.025 401.783 250.993C399.601 249.932 398.51 248.443 398.51 246.526C398.51 245.524 398.716 244.772 399.129 244.271C399.542 243.77 400.471 243.092 401.915 242.237C403.301 241.411 404.141 239.952 404.436 237.858C404.937 234.055 405.188 228.585 405.188 221.45C405.188 213.843 404.746 208.3 403.861 204.821C403.537 203.553 403.124 202.61 402.623 201.991C402.122 201.372 401.296 200.782 400.146 200.222C398.819 199.573 397.891 198.939 397.36 198.32C396.859 197.701 396.608 196.949 396.608 196.064C396.608 193.234 399.041 191.45 403.905 190.713C405.557 190.477 408.446 190.359 412.574 190.359C414.932 190.359 416.643 190.551 417.704 190.934C418.795 191.288 420.077 192.114 421.552 193.411ZM587.253 200.399C585.218 200.399 583.965 200.915 583.493 201.947C583.14 202.713 582.8 204.217 582.476 206.458C582.181 208.698 582.034 210.733 582.034 212.561C582.034 213.652 582.388 214.404 583.095 214.816C583.803 215.229 585.13 215.436 587.076 215.436C588.373 215.436 589.331 215.2 589.95 214.728C590.57 214.256 590.997 213.46 591.233 212.34C591.911 209.126 593.297 207.519 595.39 207.519C598.987 207.519 600.786 211.824 600.786 220.433C600.786 225.888 600.004 229.897 598.442 232.463C597.498 234.025 596.201 234.807 594.55 234.807C592.81 234.807 591.808 233.642 591.542 231.313C591.395 229.809 591.203 228.748 590.968 228.128C590.761 227.509 590.348 226.92 589.729 226.359C588.756 225.445 587.341 224.988 585.484 224.988C584.157 224.988 583.257 225.224 582.786 225.696C582.314 226.168 582.108 227.067 582.167 228.394C582.167 228.63 582.152 230.001 582.122 232.507C582.122 237.608 582.653 240.718 583.714 241.838C584.068 242.281 584.422 242.576 584.776 242.723C585.159 242.841 586.132 243.018 587.695 243.254C588.461 243.372 589.11 243.77 589.641 244.448C590.171 245.126 590.437 245.907 590.437 246.792C590.437 249.062 589.11 250.522 586.456 251.17C582.624 252.084 577.243 252.541 570.314 252.541C564.24 252.541 560.054 252.187 557.754 251.48C556.722 251.155 555.882 250.566 555.233 249.711C554.584 248.856 554.26 247.912 554.26 246.88C554.26 245.583 554.732 244.536 555.675 243.74C555.911 243.563 556.722 243.195 558.108 242.635C559.759 241.986 560.746 240.482 561.071 238.123C561.601 234.497 561.867 226.227 561.867 213.313C561.867 207.74 561.675 204.128 561.292 202.477C560.909 200.826 559.98 199.676 558.506 199.028C557.031 198.379 556.058 197.819 555.587 197.347C555.144 196.846 554.923 196.138 554.923 195.224C554.923 193.927 555.557 192.851 556.825 191.996C558.093 191.111 559.655 190.669 561.513 190.669C562.692 190.669 564.417 190.757 566.687 190.934C571.493 191.318 577.243 191.509 583.936 191.509C594.638 191.509 601.847 191.214 605.562 190.625C606.063 190.566 606.447 190.536 606.712 190.536C607.744 190.536 608.732 191.126 609.675 192.305C612.27 195.607 613.567 199.264 613.567 203.273C613.567 205.101 613.14 206.561 612.285 207.652C611.429 208.743 610.309 209.288 608.923 209.288C607.891 209.288 607.11 209.082 606.579 208.669C606.049 208.256 604.692 206.811 602.511 204.335C601.184 202.802 599.577 201.799 597.69 201.327C595.832 200.856 592.353 200.546 587.253 200.399ZM730.133 190.05C737.71 190.05 744.329 192.217 749.99 196.551C753.823 199.529 756.934 203.391 759.322 208.138C761.651 212.856 762.816 217.573 762.816 222.291C762.816 229.249 760.516 235.47 755.917 240.954C752.025 245.612 746.939 248.959 740.659 250.993C736.796 252.232 732.919 252.851 729.027 252.851C723.926 252.851 719.047 251.789 714.388 249.667C708.757 247.101 704.349 243.224 701.165 238.035C698.069 233.023 696.521 227.494 696.521 221.45C696.521 214.433 698.511 208.241 702.492 202.875C706.03 198.099 710.791 194.59 716.777 192.35C720.786 190.816 725.239 190.05 730.133 190.05ZM725.931 202.743C723.455 202.743 721.494 203.848 720.049 206.06C718.929 207.711 718.369 209.671 718.369 211.942C718.369 215.273 719.047 219.136 720.403 223.529C721.759 227.893 723.469 231.77 725.533 235.16C726.447 236.605 727.568 237.755 728.895 238.61C730.251 239.465 731.622 239.893 733.008 239.893C735.248 239.893 737.047 239.052 738.403 237.372C739.789 235.691 740.482 233.48 740.482 230.738C740.482 227.17 739.907 223.323 738.757 219.195C737.607 215.067 736.118 211.544 734.29 208.625C733.17 206.826 731.872 205.411 730.398 204.379C728.924 203.347 727.435 202.802 725.931 202.743ZM867.352 191.288H890.659C893.166 191.2 895.451 190.861 897.514 190.271C898.399 190.035 899.18 189.917 899.858 189.917C902.247 189.917 904.561 191.686 906.802 195.224C909.072 198.762 910.207 202.404 910.207 206.148C910.207 208.713 909.426 210.585 907.863 211.765C906.684 212.649 905.269 213.092 903.618 213.092C902.055 213.092 900.699 212.664 899.549 211.809C898.399 210.924 897.264 209.48 896.143 207.475C895.17 205.647 894.404 204.453 893.844 203.893C893.283 203.332 892.605 203.052 891.809 203.052C890.718 203.052 889.937 203.509 889.465 204.423C888.994 205.337 888.758 206.841 888.758 208.934V233.701C888.758 236.237 889.023 238.079 889.554 239.229C890.084 240.379 891.087 241.264 892.561 241.883C894.153 242.561 895.229 243.209 895.79 243.829C896.379 244.418 896.674 245.244 896.674 246.305C896.674 248.428 895.229 250.006 892.34 251.038C889.48 252.069 885.072 252.585 879.116 252.585C871.804 252.585 866.379 251.981 862.841 250.772C859.863 249.77 858.374 248.148 858.374 245.907C858.374 244.698 858.905 243.755 859.966 243.077C860.232 242.929 861.279 242.576 863.107 242.015C864.227 241.691 864.994 241.072 865.406 240.158C865.849 239.244 866.202 237.49 866.468 234.895C866.704 232.595 866.925 228.88 867.131 223.75C867.338 218.59 867.441 214.123 867.441 210.35C867.441 207.696 867.234 205.809 866.822 204.689C866.409 203.568 865.731 203.008 864.787 203.008C863.637 203.008 862.517 203.834 861.426 205.485C859.451 208.492 857.829 210.482 856.561 211.455C855.057 212.605 853.598 213.18 852.183 213.18C850.591 213.18 849.279 212.59 848.247 211.411C847.215 210.202 846.699 208.669 846.699 206.811C846.699 204.983 847.111 202.979 847.937 200.797C848.763 198.585 849.868 196.551 851.254 194.693C853.495 191.686 855.706 190.182 857.888 190.182C858.478 190.182 859.156 190.271 859.922 190.448C861.514 190.772 862.812 190.993 863.814 191.111C864.846 191.229 866.025 191.288 867.352 191.288ZM1003.55 191.288H1026.29C1030.89 191.288 1034.23 191.2 1036.33 191.023C1038.45 190.816 1040.51 190.418 1042.52 189.829C1043.14 189.652 1043.62 189.563 1043.98 189.563C1045.51 189.563 1046.87 190.389 1048.05 192.04C1049.99 194.723 1050.96 197.966 1050.96 201.77C1050.96 203.686 1050.55 205.205 1049.73 206.325C1048.93 207.416 1047.82 207.961 1046.41 207.961C1045.44 207.961 1044.67 207.77 1044.11 207.386C1043.58 206.974 1042.86 206.074 1041.94 204.689C1040.65 202.713 1038.99 201.401 1036.99 200.752C1035.01 200.074 1031.76 199.735 1027.22 199.735C1023.82 199.735 1021.76 200.34 1021.02 201.549C1020.64 202.197 1020.4 203.067 1020.32 204.158C1020.26 205.249 1020.23 208.035 1020.23 212.517C1020.23 214.286 1020.52 215.391 1021.11 215.834C1021.7 216.246 1023.25 216.453 1025.76 216.453C1026.99 216.453 1027.89 216.202 1028.45 215.701C1029.01 215.17 1029.37 214.241 1029.52 212.915C1029.72 211.205 1029.93 210.04 1030.13 209.421C1030.37 208.772 1030.78 208.212 1031.37 207.74C1031.99 207.209 1032.71 206.944 1033.54 206.944C1034.75 206.944 1035.78 207.519 1036.64 208.669C1037.25 209.524 1037.77 211.042 1038.18 213.224C1038.63 215.377 1038.85 217.632 1038.85 219.991C1038.85 224.649 1038.12 228.467 1036.68 231.445C1035.88 233.067 1034.67 233.878 1033.05 233.878C1032.05 233.878 1031.36 233.627 1030.97 233.126C1030.59 232.595 1030.3 231.519 1030.09 229.897C1029.65 226.566 1027.7 224.9 1024.25 224.9C1022.93 224.9 1022.01 225.327 1021.51 226.182C1021.04 227.008 1020.8 228.556 1020.8 230.826C1020.8 232.212 1020.89 234.01 1021.07 236.222C1021.27 238.404 1021.48 239.848 1021.69 240.556C1021.92 241.44 1022.65 242.06 1023.85 242.413C1025.09 242.738 1027.14 242.9 1030 242.9C1034.42 242.9 1037.76 242.34 1040 241.219C1042.24 240.069 1044.07 238.006 1045.48 235.028C1046.31 233.318 1047.04 232.168 1047.69 231.578C1048.37 230.988 1049.24 230.694 1050.3 230.694C1051.54 230.694 1052.56 231.239 1053.35 232.33C1054.18 233.391 1054.59 234.733 1054.59 236.354C1054.59 238.123 1054.13 240.335 1053.22 242.988C1052.31 245.642 1051.19 248.001 1049.86 250.065C1049.18 251.067 1048.62 251.73 1048.18 252.055C1047.74 252.409 1047.18 252.585 1046.5 252.585C1045.94 252.585 1045.13 252.497 1044.07 252.32C1042.18 251.966 1039.66 251.745 1036.5 251.657H998.999C997.495 251.657 996.331 251.332 995.505 250.684C994.68 250.006 994.267 249.062 994.267 247.853C994.267 246.998 994.444 246.379 994.798 245.996C995.151 245.612 995.962 245.126 997.23 244.536C998.115 244.153 998.763 243.681 999.176 243.121C999.618 242.561 999.957 241.735 1000.19 240.644C1001.17 236.192 1001.65 230.192 1001.65 222.644C1001.65 211.264 1000.95 204.084 999.53 201.106C999.235 200.517 998.911 200.104 998.557 199.868C998.203 199.632 997.466 199.352 996.346 199.028C994.665 198.526 993.825 197.406 993.825 195.666C993.825 194.723 994.105 193.883 994.665 193.146C995.225 192.408 995.962 191.922 996.876 191.686C998.026 191.421 1000.25 191.288 1003.55 191.288ZM1173.15 190.05C1177.45 190.05 1181.61 190.993 1185.62 192.88C1187.51 193.765 1188.82 194.207 1189.56 194.207C1190.09 194.207 1190.94 194.074 1192.12 193.809C1192.5 193.721 1192.93 193.676 1193.4 193.676C1194.94 193.676 1196.28 194.384 1197.43 195.799C1200.26 199.219 1201.67 203.465 1201.67 208.536C1201.67 212.104 1200.45 214.713 1198 216.364C1196.68 217.249 1195.19 217.691 1193.54 217.691C1192.03 217.691 1190.81 217.367 1189.86 216.718C1188.92 216.069 1188.01 214.92 1187.12 213.268C1185.85 210.939 1184.82 209.273 1184.03 208.271C1183.23 207.239 1182.26 206.31 1181.11 205.485C1178.25 203.48 1175.26 202.477 1172.13 202.477C1169.09 202.477 1166.68 203.583 1164.88 205.794C1163.11 207.976 1162.22 210.91 1162.22 214.595C1162.22 219.666 1163.51 224.31 1166.07 228.526C1169.55 234.158 1174.53 236.974 1181.02 236.974C1183.41 236.974 1185.77 236.576 1188.1 235.78C1190.45 234.983 1192.28 233.952 1193.58 232.684C1194.7 231.622 1195.61 231.092 1196.32 231.092C1197.35 231.092 1198.24 231.578 1198.98 232.551C1199.71 233.495 1200.08 234.644 1200.08 236.001C1200.08 237.711 1199.56 239.627 1198.53 241.75C1197.5 243.873 1196.26 245.539 1194.82 246.748C1194.2 247.249 1192.92 247.691 1190.97 248.074C1189.85 248.281 1188.36 248.826 1186.5 249.711C1182.14 251.804 1177.6 252.851 1172.88 252.851C1167.96 252.851 1163.05 251.745 1158.15 249.534C1152.46 246.969 1147.97 243.033 1144.67 237.725C1141.42 232.566 1139.8 227.17 1139.8 221.539C1139.8 214.993 1141.84 209.023 1145.9 203.627C1149.44 198.939 1154.06 195.357 1159.75 192.88C1164.08 190.993 1168.55 190.05 1173.15 190.05ZM1306.96 190.315C1316.16 190.315 1320.76 192.217 1320.76 196.02C1320.76 197.052 1320.52 197.893 1320.05 198.541C1319.58 199.19 1318.68 199.912 1317.35 200.708C1316.2 201.416 1315.47 202.345 1315.14 203.494C1314.85 204.644 1314.7 206.974 1314.7 210.482C1314.7 212.546 1315.08 213.814 1315.85 214.286C1316.29 214.58 1316.96 214.757 1317.84 214.816C1318.75 214.875 1320.88 214.905 1324.21 214.905C1327.25 214.905 1329.13 214.743 1329.87 214.418C1330.61 214.094 1330.98 213.283 1330.98 211.986C1330.98 208.094 1330.8 205.381 1330.45 203.848C1330.09 202.315 1329.4 201.268 1328.37 200.708C1327.07 199.971 1326.21 199.352 1325.8 198.851C1325.39 198.32 1325.18 197.627 1325.18 196.772C1325.18 195.563 1325.64 194.472 1326.55 193.499C1327.47 192.497 1328.66 191.819 1330.14 191.465C1333.2 190.728 1337.05 190.359 1341.68 190.359C1347.1 190.359 1351.1 190.861 1353.66 191.863C1356.26 192.836 1357.56 194.369 1357.56 196.463C1357.56 198.232 1356.64 199.558 1354.81 200.443C1353.66 200.974 1352.91 201.49 1352.56 201.991C1352.2 202.463 1351.92 203.362 1351.72 204.689C1351.6 205.426 1351.45 208.698 1351.28 214.507C1351.1 220.315 1351.01 224.929 1351.01 228.35C1351.01 234.335 1351.23 238.138 1351.67 239.76C1351.91 240.644 1352.17 241.234 1352.47 241.529C1352.76 241.824 1353.69 242.413 1355.26 243.298C1356.38 243.917 1356.94 244.861 1356.94 246.128C1356.94 248.369 1355.6 250.006 1352.91 251.038C1350.26 252.04 1345.94 252.541 1339.95 252.541C1334.71 252.541 1330.83 252.025 1328.32 250.993C1326.05 250.05 1324.92 248.59 1324.92 246.615C1324.92 244.934 1325.79 243.622 1327.53 242.679C1328.38 242.207 1328.96 241.735 1329.25 241.264C1329.58 240.792 1329.89 239.922 1330.18 238.654C1330.71 236.178 1330.98 233.141 1330.98 229.544C1330.98 227.686 1330.7 226.536 1330.14 226.094C1329.6 225.652 1328.19 225.431 1325.89 225.431C1320.61 225.431 1317.25 225.725 1315.81 226.315C1315.22 226.551 1314.85 227.244 1314.7 228.394C1314.52 229.809 1314.44 231.549 1314.44 233.612C1314.44 236.974 1314.91 239.391 1315.85 240.866C1316.17 241.337 1316.94 241.942 1318.15 242.679C1319.39 243.386 1320.01 244.551 1320.01 246.173C1320.01 248.237 1318.58 249.814 1315.72 250.905C1312.86 251.996 1308.77 252.541 1303.47 252.541C1298.63 252.541 1294.68 252.04 1291.61 251.038C1290.29 250.595 1289.24 249.976 1288.47 249.18C1287.74 248.354 1287.37 247.455 1287.37 246.482C1287.37 245.509 1287.6 244.757 1288.08 244.227C1288.55 243.696 1289.58 243.018 1291.17 242.192C1292 241.78 1292.57 241.249 1292.9 240.6C1293.25 239.952 1293.52 238.861 1293.69 237.327C1294.14 233.878 1294.36 229.367 1294.36 223.794C1294.36 222.762 1294.34 221.539 1294.31 220.123C1294.19 213.047 1294.14 209.008 1294.14 208.006C1294.17 205.47 1293.94 203.804 1293.47 203.008C1293.03 202.182 1291.84 201.283 1289.89 200.31C1288.59 199.691 1287.94 198.762 1287.94 197.524C1287.94 194.546 1290.83 192.482 1296.61 191.332C1299.97 190.654 1303.42 190.315 1306.96 190.315Z" fill="#ffffff"/>
<path d="M186.187 35.0444H72.3781V68.3544H182.618V179.784H215.531V71.9233C215.214 40.834 195.836 34.3835 186.187 35.0444Z" fill="#ffffff" stroke="#ffffff" stroke-width="0.793093"/>
<path d="M30.3446 251.956H144.153V218.646H33.9135V107.216H1.00015V215.077C1.31738 246.166 20.6953 252.616 30.3446 251.956Z" fill="#ffffff" stroke="#ffffff" stroke-width="0.793093"/>
<rect x="72.3781" y="107.216" width="72.1715" height="72.1715" fill="#DB0011"/>
</svg>
